<?xml version="1.0" standalone="no"?>
<!DOCTYPE svg PUBLIC "-//W3C//DTD SVG 20010904//EN"
 "http://www.w3.org/TR/2001/REC-SVG-20010904/DTD/svg10.dtd">
<svg version="1.0" xmlns="http://www.w3.org/2000/svg"
 width="1200.000000pt" height="1200.000000pt" viewBox="0 0 1200.000000 1200.000000"
 preserveAspectRatio="xMidYMid meet">

<g transform="translate(0.000000,1200.000000) scale(0.100000,-0.100000)"
fill="#000000" stroke="none">
<path d="M3240 11460 l0 -60 -240 0 -240 0 0 -60 0 -60 -180 0 -180 0 0 -60 0
-60 -120 0 -120 0 0 -60 0 -60 -60 0 -60 0 0 -60 0 -60 -60 0 -60 0 0 -120 0
-120 -60 0 -60 0 0 -120 0 -120 -60 0 -60 0 0 -120 0 -120 -60 0 -60 0 0 -240
0 -240 -60 0 -60 0 0 -360 0 -360 60 0 60 0 0 -120 0 -120 60 0 60 0 0 -120 0
-120 120 0 120 0 0 240 0 240 60 0 60 0 0 180 0 180 60 0 60 0 0 60 0 60 60 0
60 0 0 -180 0 -180 60 0 60 0 0 -180 0 -180 60 0 60 0 0 -60 0 -60 60 0 60 0
0 -60 0 -60 180 0 180 0 0 60 0 60 -60 0 -60 0 0 180 0 180 60 0 60 0 0 240 0
240 60 0 60 0 0 120 0 120 60 0 60 0 0 180 0 180 60 0 60 0 0 60 0 60 60 0 60
0 0 60 0 60 60 0 60 0 0 60 0 60 180 0 180 0 0 60 0 60 240 0 240 0 0 -60 0
-60 120 0 120 0 0 -60 0 -60 60 0 60 0 0 -60 0 -60 60 0 60 0 0 -120 0 -120
60 0 60 0 0 -240 0 -240 -60 0 -60 0 0 -120 0 -120 -60 0 -60 0 0 -60 0 -60
-60 0 -60 0 0 -60 0 -60 -60 0 -60 0 0 -120 0 -120 60 0 60 0 0 -60 0 -60 60
0 60 0 0 -60 0 -60 60 0 60 0 0 -60 0 -60 60 0 60 0 0 -60 0 -60 60 0 60 0 0
-60 0 -60 60 0 60 0 0 -120 0 -120 60 0 60 0 0 -60 0 -60 120 0 120 0 0 60 0
60 60 0 60 0 0 60 0 60 60 0 60 0 0 120 0 120 60 0 60 0 0 180 0 180 60 0 60
0 0 120 0 120 60 0 60 0 0 180 0 180 60 0 60 0 0 360 0 360 -60 0 -60 0 0 180
0 180 -60 0 -60 0 0 120 0 120 -60 0 -60 0 0 120 0 120 -60 0 -60 0 0 60 0 60
-60 0 -60 0 0 60 0 60 -60 0 -60 0 0 60 0 60 -120 0 -120 0 0 60 0 60 -120 0
-120 0 0 60 0 60 -240 0 -240 0 0 60 0 60 -720 0 -720 0 0 -60z"/>
<path d="M3360 9300 l0 -60 -60 0 -60 0 0 -480 0 -480 60 0 60 0 0 -60 0 -60
60 0 60 0 0 -120 0 -120 60 0 60 0 0 -120 0 -120 -60 0 -60 0 0 60 0 60 -60 0
-60 0 0 60 0 60 -60 0 -60 0 0 60 0 60 -120 0 -120 0 0 60 0 60 -60 0 -60 0 0
60 0 60 -60 0 -60 0 0 60 0 60 -120 0 -120 0 0 60 0 60 -60 0 -60 0 0 60 0 60
-60 0 -60 0 0 60 0 60 -120 0 -120 0 0 -60 0 -60 60 0 60 0 0 -300 0 -300 -60
0 -60 0 0 60 0 60 -360 0 -360 0 0 -60 0 -60 120 0 120 0 0 -60 0 -60 60 0 60
0 0 -60 0 -60 60 0 60 0 0 -60 0 -60 60 0 60 0 0 -180 0 -180 -60 0 -60 0 0
-120 0 -120 -180 0 -180 0 0 -60 0 -60 -240 0 -240 0 0 -60 0 -60 -120 0 -120
0 0 -60 0 -60 -60 0 -60 0 0 -120 0 -120 60 0 60 0 0 60 0 60 360 0 360 0 0
-60 0 -60 120 0 120 0 0 -240 0 -240 -60 0 -60 0 0 -120 0 -120 120 0 120 0 0
60 0 60 120 0 120 0 0 60 0 60 120 0 120 0 0 60 0 60 120 0 120 0 0 60 0 60
180 0 180 0 0 60 0 60 60 0 60 0 0 -120 0 -120 -60 0 -60 0 0 -120 0 -120 420
0 420 0 0 -240 0 -240 60 0 60 0 0 -120 0 -120 -60 0 -60 0 0 -120 0 -120 -60
0 -60 0 0 -60 0 -60 180 0 180 0 0 -60 0 -60 -60 0 -60 0 0 -60 0 -60 300 0
300 0 0 60 0 60 120 0 120 0 0 180 0 180 -120 0 -120 0 0 240 0 240 -120 0
-120 0 0 240 0 240 60 0 60 0 0 60 0 60 -180 0 -180 0 0 60 0 60 360 0 360 0
0 60 0 60 120 0 120 0 0 -60 0 -60 60 0 60 0 0 -180 0 -180 -60 0 -60 0 0 -60
0 -60 -120 0 -120 0 0 180 0 180 -60 0 -60 0 0 -300 0 -300 60 0 60 0 0 -60 0
-60 60 0 60 0 0 -120 0 -120 60 0 60 0 0 -180 0 -180 60 0 60 0 0 -120 0 -120
60 0 60 0 0 -120 0 -120 60 0 60 0 0 -120 0 -120 120 0 120 0 0 -60 0 -60 60
0 60 0 0 -60 0 -60 120 0 120 0 0 -60 0 -60 120 0 120 0 0 -60 0 -60 60 0 60
0 0 -60 0 -60 60 0 60 0 0 -60 0 -60 60 0 60 0 0 -60 0 -60 60 0 60 0 0 -120
0 -120 60 0 60 0 0 -240 0 -240 60 0 60 0 0 -360 0 -360 60 0 60 0 0 -240 0
-240 60 0 60 0 0 -120 0 -120 60 0 60 0 0 -60 0 -60 60 0 60 0 0 -60 0 -60 60
0 60 0 0 -120 0 -120 120 0 120 0 0 60 0 60 -60 0 -60 0 0 300 0 300 60 0 60
0 0 -120 0 -120 60 0 60 0 0 -120 0 -120 120 0 120 0 0 -60 0 -60 120 0 120 0
0 -60 0 -60 900 0 900 0 0 60 0 60 180 0 180 0 0 60 0 60 60 0 60 0 0 60 0 60
60 0 60 0 0 180 0 180 -300 0 -300 0 0 60 0 60 420 0 420 0 0 60 0 60 180 0
180 0 0 60 0 60 60 0 60 0 0 480 0 480 -60 0 -60 0 0 300 0 300 -60 0 -60 0 0
120 0 120 -60 0 -60 0 0 60 0 60 -60 0 -60 0 0 60 0 60 -60 0 -60 0 0 60 0 60
-60 0 -60 0 0 60 0 60 -120 0 -120 0 0 60 0 60 -360 0 -360 0 0 -120 0 -120
60 0 60 0 0 -60 0 -60 60 0 60 0 0 -60 0 -60 60 0 60 0 0 -420 0 -420 -60 0
-60 0 0 -60 0 -60 -360 0 -360 0 0 120 0 120 60 0 60 0 0 120 0 120 60 0 60 0
0 300 0 300 -60 0 -60 0 0 120 0 120 -60 0 -60 0 0 120 0 120 -180 0 -180 0 0
-180 0 -180 60 0 60 0 0 -120 0 -120 -60 0 -60 0 0 -180 0 -180 -180 0 -180 0
0 60 0 60 -180 0 -180 0 0 60 0 60 -60 0 -60 0 0 60 0 60 -60 0 -60 0 0 60 0
60 -120 0 -120 0 0 60 0 60 -60 0 -60 0 0 60 0 60 -120 0 -120 0 0 60 0 60
-60 0 -60 0 0 60 0 60 -60 0 -60 0 0 60 0 60 -60 0 -60 0 0 60 0 60 -60 0 -60
0 0 60 0 60 -60 0 -60 0 0 60 0 60 -180 0 -180 0 0 60 0 60 -120 0 -120 0 0
60 0 60 -120 0 -120 0 0 60 0 60 -60 0 -60 0 0 120 0 120 -60 0 -60 0 0 60 0
60 -60 0 -60 0 0 60 0 60 -120 0 -120 0 0 60 0 60 -60 0 -60 0 0 60 0 60 240
0 240 0 0 -60 0 -60 60 0 60 0 0 -120 0 -120 60 0 60 0 0 -120 0 -120 120 0
120 0 0 60 0 60 60 0 60 0 0 60 0 60 60 0 60 0 0 120 0 120 60 0 60 0 0 360 0
360 -120 0 -120 0 0 -60 0 -60 -60 0 -60 0 0 60 0 60 -120 0 -120 0 0 120 0
120 60 0 60 0 0 240 0 240 -60 0 -60 0 0 120 0 120 -60 0 -60 0 0 60 0 60
-120 0 -120 0 0 60 0 60 -60 0 -60 0 0 60 0 60 -60 0 -60 0 0 60 0 60 -60 0
-60 0 0 60 0 60 -120 0 -120 0 0 60 0 60 -60 0 -60 0 0 60 0 60 -60 0 -60 0 0
120 0 120 -60 0 -60 0 0 120 0 120 -60 0 -60 0 0 120 0 120 -60 0 -60 0 0 180
0 180 -60 0 -60 0 0 60 0 60 -120 0 -120 0 0 -420 0 -420 -60 0 -60 0 0 120 0
120 -60 0 -60 0 0 60 0 60 -60 0 -60 0 0 120 0 120 -60 0 -60 0 0 120 0 120
-60 0 -60 0 0 -60z m720 -840 l0 -60 60 0 60 0 0 -60 0 -60 60 0 60 0 0 -60 0
-60 -60 0 -60 0 0 60 0 60 -60 0 -60 0 0 60 0 60 -60 0 -60 0 0 60 0 60 60 0
60 0 0 -60z m-2160 -480 l0 -60 -60 0 -60 0 0 60 0 60 60 0 60 0 0 -60z m1800
-360 l0 -60 -60 0 -60 0 0 60 0 60 60 0 60 0 0 -60z m1200 -120 l0 -60 60 0
60 0 0 -60 0 -60 60 0 60 0 0 -60 0 -60 -120 0 -120 0 0 120 0 120 -60 0 -60
0 0 60 0 60 60 0 60 0 0 -60z m-1200 -600 l0 -60 -240 0 -240 0 0 60 0 60 240
0 240 0 0 -60z m1080 0 l0 -60 60 0 60 0 0 -60 0 -60 60 0 60 0 0 -60 0 -60
-60 0 -60 0 0 60 0 60 -60 0 -60 0 0 60 0 60 -60 0 -60 0 0 60 0 60 60 0 60 0
0 -60z m-1680 -120 l0 -60 -60 0 -60 0 0 -60 0 -60 120 0 120 0 0 -60 0 -60
-60 0 -60 0 0 -60 0 -60 -60 0 -60 0 0 60 0 60 -120 0 -120 0 0 120 0 120 120
0 120 0 0 60 0 60 60 0 60 0 0 -60z m4680 -5400 l0 -60 -60 0 -60 0 0 60 0 60
60 0 60 0 0 -60z"/>
<path d="M9360 7860 l0 -60 -180 0 -180 0 0 -60 0 -60 -60 0 -60 0 0 -60 0
-60 -60 0 -60 0 0 -60 0 -60 -120 0 -120 0 0 -60 0 -60 -60 0 -60 0 0 -60 0
-60 -60 0 -60 0 0 180 0 180 -120 0 -120 0 0 -60 0 -60 -60 0 -60 0 0 -60 0
-60 -60 0 -60 0 0 -60 0 -60 -60 0 -60 0 0 -60 0 -60 -60 0 -60 0 0 -60 0 -60
-60 0 -60 0 0 -120 0 -120 -60 0 -60 0 0 -60 0 -60 -60 0 -60 0 0 -60 0 -60
-60 0 -60 0 0 -60 0 -60 -60 0 -60 0 0 -120 0 -120 -60 0 -60 0 0 -60 0 -60
180 0 180 0 0 60 0 60 60 0 60 0 0 -120 0 -120 -60 0 -60 0 0 -60 0 -60 -60 0
-60 0 0 -60 0 -60 -60 0 -60 0 0 -60 0 -60 -60 0 -60 0 0 -60 0 -60 -60 0 -60
0 0 -60 0 -60 -60 0 -60 0 0 -60 0 -60 -60 0 -60 0 0 -60 0 -60 60 0 60 0 0
-60 0 -60 60 0 60 0 0 -60 0 -60 120 0 120 0 0 -60 0 -60 60 0 60 0 0 -60 0
-60 120 0 120 0 0 240 0 240 60 0 60 0 0 60 0 60 60 0 60 0 0 60 0 60 60 0 60
0 0 60 0 60 60 0 60 0 0 120 0 120 60 0 60 0 0 60 0 60 60 0 60 0 0 60 0 60
60 0 60 0 0 60 0 60 60 0 60 0 0 60 0 60 60 0 60 0 0 60 0 60 60 0 60 0 0 60
0 60 60 0 60 0 0 60 0 60 540 0 540 0 0 -60 0 -60 240 0 240 0 0 60 0 60 180
0 180 0 0 60 0 60 300 0 300 0 0 60 0 60 240 0 240 0 0 60 0 60 -120 0 -120 0
0 60 0 60 -180 0 -180 0 0 60 0 60 -180 0 -180 0 0 60 0 60 -120 0 -120 0 0
60 0 60 -120 0 -120 0 0 60 0 60 -120 0 -120 0 0 60 0 60 -240 0 -240 0 0 -60
0 -60 -120 0 -120 0 0 60 0 60 60 0 60 0 0 60 0 60 60 0 60 0 0 120 0 120 -60
0 -60 0 0 -60z m-240 -360 l0 -60 -60 0 -60 0 0 60 0 60 60 0 60 0 0 -60z
m-120 -600 l0 -60 -120 0 -120 0 0 -60 0 -60 -120 0 -120 0 0 -60 0 -60 -180
0 -180 0 0 -60 0 -60 -180 0 -180 0 0 -60 0 -60 -60 0 -60 0 0 -60 0 -60 -120
0 -120 0 0 -60 0 -60 -60 0 -60 0 0 60 0 60 60 0 60 0 0 60 0 60 120 0 120 0
0 60 0 60 60 0 60 0 0 60 0 60 120 0 120 0 0 60 0 60 120 0 120 0 0 60 0 60
180 0 180 0 0 60 0 60 180 0 180 0 0 -60z"/>
<path d="M1320 6300 l0 -60 -120 0 -120 0 0 -60 0 -60 -60 0 -60 0 0 -60 0
-60 -60 0 -60 0 0 -60 0 -60 -60 0 -60 0 0 -120 0 -120 -60 0 -60 0 0 -60 0
-60 -60 0 -60 0 0 -120 0 -120 -60 0 -60 0 0 -180 0 -180 -60 0 -60 0 0 -180
0 -180 60 0 60 0 0 60 0 60 60 0 60 0 0 -240 0 -240 -60 0 -60 0 0 -840 0
-840 60 0 60 0 0 -120 0 -120 60 0 60 0 0 -120 0 -120 60 0 60 0 0 -120 0
-120 60 0 60 0 0 -60 0 -60 60 0 60 0 0 -120 0 -120 180 0 180 0 0 120 0 120
60 0 60 0 0 -60 0 -60 60 0 60 0 0 -120 0 -120 60 0 60 0 0 -60 0 -60 60 0 60
0 0 -60 0 -60 120 0 120 0 0 -60 0 -60 180 0 180 0 0 -60 0 -60 180 0 180 0 0
-60 0 -60 660 0 660 0 0 60 0 60 180 0 180 0 0 60 0 60 180 0 180 0 0 60 0 60
120 0 120 0 0 60 0 60 120 0 120 0 0 60 0 60 120 0 120 0 0 60 0 60 60 0 60 0
0 60 0 60 60 0 60 0 0 60 0 60 60 0 60 0 0 60 0 60 60 0 60 0 0 60 0 60 60 0
60 0 0 60 0 60 60 0 60 0 0 120 0 120 60 0 60 0 0 60 0 60 60 0 60 0 0 120 0
120 60 0 60 0 0 120 0 120 -120 0 -120 0 0 60 0 60 -60 0 -60 0 0 60 0 60 -60
0 -60 0 0 60 0 60 -60 0 -60 0 0 60 0 60 -60 0 -60 0 0 60 0 60 -60 0 -60 0 0
60 0 60 -120 0 -120 0 0 -120 0 -120 -60 0 -60 0 0 -60 0 -60 -120 0 -120 0 0
-60 0 -60 -60 0 -60 0 0 -60 0 -60 -60 0 -60 0 0 -120 0 -120 -60 0 -60 0 0
-60 0 -60 -60 0 -60 0 0 -60 0 -60 -60 0 -60 0 0 -60 0 -60 -420 0 -420 0 0
60 0 60 -180 0 -180 0 0 60 0 60 -60 0 -60 0 0 60 0 60 -60 0 -60 0 0 60 0 60
-60 0 -60 0 0 180 0 180 -60 0 -60 0 0 180 0 180 -60 0 -60 0 0 360 0 360 60
0 60 0 0 180 0 180 60 0 60 0 0 180 0 180 60 0 60 0 0 120 0 120 60 0 60 0 0
60 0 60 60 0 60 0 0 60 0 60 60 0 60 0 0 120 0 120 -240 0 -240 0 0 -60 0 -60
-120 0 -120 0 0 -60 0 -60 -60 0 -60 0 0 -60 0 -60 -60 0 -60 0 0 300 0 300
-60 0 -60 0 0 -60 0 -60 -120 0 -120 0 0 -60 0 -60 -60 0 -60 0 0 -60 0 -60
-120 0 -120 0 0 -60 0 -60 -120 0 -120 0 0 -60 0 -60 -60 0 -60 0 0 -120 0
-120 -60 0 -60 0 0 300 0 300 60 0 60 0 0 300 0 300 -60 0 -60 0 0 -60z"/>
</g>
</svg>
